<?xml version="1.0" encoding="UTF-8" standalone="no"?>
<!DOCTYPE svg PUBLIC "-//W3C//DTD SVG 1.1//EN" "http://www.w3.org/Graphics/SVG/1.1/DTD/svg11.dtd">
<svg width="100%" height="100%" viewBox="0 0 2481 709" version="1.1" xmlns="http://www.w3.org/2000/svg" xmlns:xlink="http://www.w3.org/1999/xlink" xml:space="preserve" xmlns:serif="http://www.serif.com/" style="fill-rule:evenodd;clip-rule:evenodd;stroke-linejoin:round;stroke-miterlimit:2;">
    <g transform="matrix(1.55429,0,0,1.55429,-1099.96,-1063.45)">
        <path d="M916.251,737.756C977.665,737.756 1016.07,746.722 1031.46,764.655C1046.85,782.587 1054.55,827.417 1054.55,899.146C1054.55,976.428 1047.17,1024.12 1032.41,1042.21C1017.65,1060.3 978.934,1069.34 916.251,1069.34C853.885,1069.34 815.204,1060.38 800.208,1042.44C785.212,1024.51 777.713,978.174 777.713,903.43L777.713,880.579L778.189,849.872C778.189,806.708 787.909,777.231 807.349,761.441C826.789,745.651 863.089,737.756 916.251,737.756ZM916.013,768.701C864.597,768.701 834.525,774.414 825.797,785.84C817.069,797.266 812.705,836.462 812.705,903.43C812.705,970.557 817.069,1009.83 825.797,1021.26C834.525,1032.68 864.597,1038.4 916.013,1038.4C967.588,1038.4 997.739,1032.68 1006.47,1021.26C1015.2,1009.83 1019.56,970.557 1019.56,903.43L1019.56,882.245L1019.32,851.538C1019.32,815.674 1013.29,792.902 1001.23,783.221C989.17,773.541 960.764,768.701 916.013,768.701Z" style="fill-rule:nonzero;"/>
        <path d="M1374,741.089L1374,1066.01L1313.77,1066.01L1177.62,844.873L1155.48,808.453L1133.58,772.272L1132.63,772.272L1132.87,784.412L1133.1,796.79L1133.1,1066.01L1096.44,1066.01L1096.44,741.089L1156.43,741.089L1275.21,934.851L1306.16,985.791L1321.63,1011.02L1336.86,1036.49L1337.82,1036.49L1337.58,1024.35L1337.34,1011.98L1337.34,741.089L1374,741.089Z" style="fill-rule:nonzero;"/>
        <path d="M1635.6,997.217L1471.12,997.217L1446.12,1066.01L1407.32,1066.01L1526.34,741.089L1577.76,741.089L1699.15,1066.01L1660.83,1066.01L1635.6,997.217ZM1624.89,969.605L1552.76,771.082L1481.59,969.605L1624.89,969.605Z" style="fill-rule:nonzero;"/>
    </g>
    <g transform="matrix(1.55429,0,0,1.55429,280.041,-1063.45)">
        <path d="M910.776,775.128L910.776,1066.01L874.118,1066.01L874.118,775.128L768.192,775.128L768.192,741.089L1015.75,741.089L1015.75,775.128L910.776,775.128Z" style="fill-rule:nonzero;"/>
        <path d="M1167.14,737.756C1228.56,737.756 1266.96,746.722 1282.35,764.655C1297.75,782.587 1305.44,827.417 1305.44,899.146C1305.44,976.428 1298.06,1024.12 1283.3,1042.21C1268.55,1060.3 1229.83,1069.34 1167.14,1069.34C1104.78,1069.34 1066.1,1060.38 1051.1,1042.44C1036.1,1024.51 1028.61,978.174 1028.61,903.43L1028.61,880.579L1029.08,849.872C1029.08,806.708 1038.8,777.231 1058.24,761.441C1077.68,745.651 1113.98,737.756 1167.14,737.756ZM1166.9,768.701C1115.49,768.701 1085.42,774.414 1076.69,785.84C1067.96,797.266 1063.6,836.462 1063.6,903.43C1063.6,970.557 1067.96,1009.83 1076.69,1021.26C1085.42,1032.68 1115.49,1038.4 1166.9,1038.4C1218.48,1038.4 1248.63,1032.68 1257.36,1021.26C1266.09,1009.83 1270.45,970.557 1270.45,903.43L1270.45,882.245L1270.21,851.538C1270.21,815.674 1264.18,792.902 1252.12,783.221C1240.06,773.541 1211.65,768.701 1166.9,768.701Z" style="fill-rule:nonzero;"/>
    </g>
</svg>
